PathFileType	4	(X/Y/Z)	C:\Users\Basilio\Documents\Thesis Gigler\squatting_fais\c3dfiles\077\SLS_back_pre5\markers_experimental.trc
DataRate	CameraRate	NumFrames	NumMarkers	Units	OrigDataRate	OrigDataStartFrame	OrigNumFrames
200.000000	200.000000	4	60	mm	200.000000	789	1578
Frame#	Time	FHD			RBHD			C7			T10			CLAV			LSHO			LUUPA			LMUPA			LDUPA			LLEP			LMEP			LRAD			LUL			LRFIN			RSHO			RUPA1			RMUPA			RDUPA			RLEP			RMEP			RRAD			RUL			RUFIN			LASI			RASI			USACR			LSACR			RSACR			LTHI1			LTHI2			LTHI3			LTHI4			LLFC			LMFC			LTIB1			LTIB2			LTIB3			LTIB4			LLMAL			LHEE			LMT1			LMT2			LMT5			RTHI			RTHI2			RTHI3			RTHI4			RLFC			RMFC			RTIB1			RTIB2			RTIB3			RTIB4			RLMAL			RMMAL			RHEE			RMT1			RMT2			RMT5			LBHD			
		X1	Y1	Z1	X2	Y2	Z2	X3	Y3	Z3	X4	Y4	Z4	X5	Y5	Z5	X6	Y6	Z6	X7	Y7	Z7	X8	Y8	Z8	X9	Y9	Z9	X10	Y10	Z10	X11	Y11	Z11	X12	Y12	Z12	X13	Y13	Z13	X14	Y14	Z14	X15	Y15	Z15	X16	Y16	Z16	X17	Y17	Z17	X18	Y18	Z18	X19	Y19	Z19	X20	Y20	Z20	X21	Y21	Z21	X22	Y22	Z22	X23	Y23	Z23	X24	Y24	Z24	X25	Y25	Z25	X26	Y26	Z26	X27	Y27	Z27	X28	Y28	Z28	X29	Y29	Z29	X30	Y30	Z30	X31	Y31	Z31	X32	Y32	Z32	X33	Y33	Z33	X34	Y34	Z34	X35	Y35	Z35	X36	Y36	Z36	X37	Y37	Z37	X38	Y38	Z38	X39	Y39	Z39	X40	Y40	Z40	X41	Y41	Z41	X42	Y42	Z42	X43	Y43	Z43	X44	Y44	Z44	X45	Y45	Z45	X46	Y46	Z46	X47	Y47	Z47	X48	Y48	Z48	X49	Y49	Z49	X50	Y50	Z50	X51	Y51	Z51	X52	Y52	Z52	X53	Y53	Z53	X54	Y54	Z54	X55	Y55	Z55	X56	Y56	Z56	X57	Y57	Z57	X58	Y58	Z58	X59	Y59	Z59	X60	Y60	Z60	

790	3.945	-62.77385330200197	1599.320068359375	-1099.942993164063	-210.0982208251954	1491.642822265625	-1018.612854003906	-270.0780944824219	1376.957763671875	-1099.9208984375	-393.7213134765626	1091.039428710938	-1045.104125976563	-123.6677780151367	1290.169555664063	-1087.23388671875	-148.8289031982422	1334.338989257813	-1256.89306640625	1.064795851707459	1269.655883789063	-1369.176025390625	33.52082061767579	1299.056762695313	-1345.471923828125	68.33055877685548	1263.128051757813	-1380.908203125	133.7075653076172	1268.894287109375	-1381.502075195313	136.5851745605469	1198.679077148438	-1349.950073242188	433.5867614746095	1287.67333984375	-1284.574829101563	433.6894836425782	1286.486572265625	-1364.499877929688	530.4232177734376	1310.084716796875	-1301.610473632813	-141.4920959472657	1363.4599609375	-939.8723754882815	-3.416135072708131	1319.960083007813	-811.3649902343752	28.46826553344727	1340.83447265625	-841.9836425781252	65.98741149902345	1313.774536132813	-802.0237426757815	133.5259857177735	1311.005737304688	-808.2863769531252	129.941162109375	1234.617919921875	-827.8047485351565	415.7754821777345	1294.163330078125	-920.9134521484377	430.3386535644532	1309.686767578125	-842.0984497070315	509.8587036132814	1314.494506835938	-925.2266845703127	-305.2789306640626	856.4600830078127	-1172.47314453125	-326.5814819335938	832.781677246094	-900.2619628906252	-446.5570373535157	1014.470825195313	-1035.193969726563	-467.5023498535157	998.3574218750002	-1068.153076171875	-472.7627868652345	986.5289306640627	-1013.220642089844	-294.3587341308594	714.5545043945314	-1254.4609375	-222.7892303466797	669.5678100585939	-1252.075927734375	-185.0797576904297	699.5056762695314	-1242.883178710938	-215.5577545166016	610.3279418945314	-1242.455688476563	-115.5857315063477	498.2603454589845	-1203.763305664063	-106.0955581665039	496.4866638183595	-1074.932739257813	-159.1817474365235	297.6225585937501	-1094.532836914063	-209.9479064941407	257.8596801757813	-1158.667236328125	-184.0865325927735	250.4216918945313	-1121.841064453125	-225.7042388916016	192.5803527832032	-1075.890991210938	-329.8051147460938	103.0446166992188	-1106.242431640625	-395.9664916992189	82.06689453125001	-1046.951782226563	-181.8265380859375	57.27379608154298	-1067.951782226563	-191.5755767822266	40.85670471191407	-1115.019287109375	-299.5764770507813	124.986083984375	-1023.824462890625	-481.9603881835939	541.3532714843751	-858.674011230469	-451.4597473144532	479.2582092285157	-847.4673461914065	-417.4394836425782	474.8661193847657	-847.3969726562502	-489.6572265625001	410.9860839843751	-873.3862304687502	-510.1137695312501	381.0431213378907	-886.1175537109377	-472.7130126953126	349.1459350585938	-1008.613037109375	-623.3192138671876	362.1112670898438	-955.5691528320315	-685.2799682617189	448.5783081054689	-945.8555908203127	-693.5938720703126	409.3094482421876	-972.1221923828127	-716.6878051757814	423.0135498046876	-1024.954223632813	-864.2731933593752	546.8221435546876	-1042.65234375	-832.5073852539065	521.3121337890626	-1125.784423828125	-837.9947509765627	619.3214111328126	-1090.495727539063	-962.4924926757815	443.0821533203126	-1157.886352539063	-978.2706298828127	443.4062805175782	-1119.272705078125	-1009.214660644531	469.9106445312501	-1083.195434570313	-207.8273010253907	1493.688232421875	-1164.30615234375	
791	3.95	-62.12865447998048	1597.95556640625	-1099.810791015625	-209.3560028076172	1490.3955078125	-1018.424438476563	-269.2637329101563	1376.054931640625	-1099.772583007813	-393.5953979492189	1090.414306640625	-1044.830200195313	-123.0409088134766	1288.7568359375	-1086.933349609375	-148.3743896484375	1333.073364257813	-1256.632080078125	1.572590589523316	1268.362915039063	-1369.208618164063	33.84722900390626	1297.574340820313	-1345.394653320313	68.96782684326173	1261.665283203125	-1380.751342773438	133.9315795898438	1267.672729492188	-1381.590698242188	136.9265441894532	1197.331787109375	-1350.148315429688	434.1605834960939	1286.12353515625	-1284.525512695313	433.9339904785157	1284.799560546875	-1364.541137695313	531.9012451171876	1309.487915039063	-1301.654296875	-141.051742553711	1362.543090820313	-939.870788574219	-2.53763222694397	1318.955078125	-811.2903442382815	29.04480743408204	1339.391723632813	-841.9868774414065	66.68753814697267	1312.52783203125	-802.0205078125002	134.1299743652344	1309.508911132813	-808.4931640625002	130.6300659179688	1233.38720703125	-827.7875976562502	416.6017456054689	1292.498779296875	-921.0620727539065	430.5613098144532	1308.1396484375	-842.595886230469	510.7350158691407	1313.349853515625	-925.5507812500002	-305.5143432617188	855.829772949219	-1172.464721679688	-326.6998596191407	831.9859619140627	-900.2973632812502	-446.6047668457032	1013.612487792969	-1034.943359375	-467.542938232422	997.906433105469	-1067.9384765625	-472.7357482910157	985.8950195312502	-1012.934692382813	-294.4916992187501	714.0729980468751	-1254.101806640625	-222.9493560791016	669.3188476562501	-1251.548950195313	-185.1302947998047	699.3187255859376	-1242.258666992188	-215.8653259277344	610.0827636718751	-1241.888916015625	-115.5135574340821	498.2214660644532	-1202.818115234375	-106.4067001342774	496.5217895507814	-1074.150146484375	-159.0155029296875	297.6838684082032	-1093.595947265625	-209.7815093994141	257.7284851074219	-1158.179931640625	-184.0362091064453	250.2534484863282	-1121.086547851563	-225.6216278076172	192.6535949707032	-1075.214965820313	-329.7399902343751	103.066650390625	-1105.974365234375	-395.9132385253907	81.92292785644533	-1046.770385742188	-181.6960601806641	57.2506675720215	-1067.704833984375	-191.4568328857422	40.88665771484376	-1114.903198242188	-299.7645568847657	124.7522735595703	-1023.36865234375	-482.4832458496095	540.3359985351564	-858.7003173828127	-452.0237121582032	478.3956909179689	-847.898620605469	-418.0674133300782	473.7932739257814	-847.7047119140627	-490.3692932128907	410.0576477050782	-873.9699707031252	-510.746307373047	380.2917480468751	-886.370544433594	-473.611541748047	348.3061828613282	-1008.954956054688	-624.2489624023439	361.5897521972657	-955.7366333007815	-685.9687500000001	448.1347656250001	-946.002136230469	-694.3389892578126	408.8986206054689	-972.3420410156252	-716.1643066406251	422.1870422363282	-1025.589965820313	-864.8355102539065	546.8650512695314	-1042.632934570313	-833.1592407226565	521.6663208007814	-1125.613159179688	-838.384704589844	619.3754272460939	-1090.489990234375	-963.6512451171877	442.2124633789064	-1157.59716796875	-980.6812744140627	442.7689819335939	-1120.827514648438	-1009.759582519531	470.2022705078126	-1083.26416015625	-207.0906066894532	1492.030517578125	-1164.095092773438	
792	3.955	-61.61683273315431	1596.964477539063	-1099.762817382813	-208.8099365234376	1489.490234375	-1018.592651367188	-269.0470275878907	1375.1337890625	-1099.58544921875	-393.552947998047	1089.542114257813	-1044.570190429688	-122.5242919921875	1287.5859375	-1086.797729492188	-147.6152954101563	1331.897827148438	-1256.453857421875	1.657870054244996	1266.81787109375	-1369.001220703125	34.45077514648438	1296.189331054688	-1345.417602539063	69.65676116943361	1260.040893554688	-1380.7294921875	134.2728881835938	1266.058471679688	-1381.59765625	137.0450592041016	1195.793212890625	-1348.69970703125	434.6116333007814	1284.490844726563	-1284.614013671875	434.0664062500001	1283.309936523438	-1364.57177734375	531.4165649414064	1306.896240234375	-1301.607421875	-140.3341522216797	1361.202758789063	-939.6574707031252	-1.790867567062378	1317.785400390625	-811.3406372070315	29.94857597351075	1338.290893554688	-842.1177978515627	67.38282775878908	1311.184204101563	-802.0664062500002	134.9824829101563	1308.306518554688	-808.3003540039065	131.2892456054688	1231.985717773438	-827.6353759765627	417.2007751464845	1290.970581054688	-921.2182617187502	431.3946838378907	1306.28662109375	-842.6099243164065	511.3927612304689	1311.310180664063	-925.6494140625002	-305.8246765136719	855.2614746093752	-1172.498901367188	-326.8399353027344	830.8629150390627	-900.3067016601565	-446.5455932617189	1013.120178222656	-1034.558349609375	-467.7041931152345	997.3469848632815	-1067.722045898438	-472.7938842773439	985.2051391601565	-1012.628173828125	-294.6485290527344	713.7020263671876	-1253.6806640625	-223.1358032226563	669.1069946289064	-1251.022338867188	-185.1897430419922	699.1075439453126	-1241.697998046875	-215.8933410644532	609.8901367187501	-1241.352416992188	-115.2736892700196	498.2559814453126	-1202.092895507813	-106.7799758911133	496.4638671875001	-1073.30859375	-158.8813171386719	298.1623535156251	-1092.727661132813	-209.3464355468751	257.4664001464844	-1157.54443359375	-183.7876892089844	250.321029663086	-1120.073608398438	-225.4157714843751	192.6965484619141	-1074.377807617188	-329.5898742675782	103.0750732421875	-1105.691650390625	-395.9310302734376	81.83017730712892	-1046.592895507813	-181.7275390625	57.16670608520509	-1067.555419921875	-191.3465728759766	40.97653198242188	-1114.775512695313	-299.8368835449219	124.6064987182617	-1022.814025878906	-483.0614013671876	539.5068969726564	-858.860290527344	-452.4310607910157	477.5898742675782	-847.9801025390627	-418.5989379882814	472.9488830566407	-848.120056152344	-490.6665954589845	409.1360473632814	-874.8196411132815	-511.5926818847657	379.2394104003907	-886.7396240234377	-474.5496520996095	347.4524230957032	-1009.410888671875	-625.2921142578126	361.3386230468751	-955.8638305664065	-686.4818115234376	447.7626342773439	-946.1612548828127	-695.2332153320314	408.4502258300782	-972.5969238281252	-717.3770141601564	422.2103881835939	-1025.609375	-865.312683105469	546.9456176757814	-1042.6201171875	-833.719909667969	521.8683471679689	-1125.601440429688	-838.7837524414065	619.3266601562501	-1090.497802734375	-964.0363769531252	444.0252380371095	-1158.25146484375	-979.4451293945315	444.4730834960939	-1118.459838867188	-1010.338745117188	470.5410766601564	-1083.277587890625	-206.560775756836	1491.163208007813	-1163.9833984375	
793	3.96	-60.56407928466798	1595.117797851563	-1099.525756835938	-208.1668395996094	1488.271728515625	-1018.41259765625	-268.3376159667969	1374.0087890625	-1099.438598632813	-393.4522705078126	1088.85791015625	-1044.37451171875	-120.9183807373047	1286.1474609375	-1086.407958984375	-146.681884765625	1330.436401367188	-1256.16015625	2.160746812820435	1265.41064453125	-1368.96484375	34.89107131958009	1294.891235351563	-1345.3291015625	69.24179077148439	1258.91162109375	-1380.404663085938	135.0864562988282	1264.675048828125	-1381.483032226563	137.2882690429688	1194.515258789063	-1349.061401367188	435.3032531738282	1282.87451171875	-1284.56640625	434.7934875488282	1281.619262695313	-1364.679565429688	531.7323608398439	1305.398803710938	-1301.758056640625	-139.6025085449219	1359.910888671875	-939.5747070312502	-1.14945137500763	1316.46826171875	-811.309997558594	30.71880531311036	1337.177612304688	-842.102233886719	68.04942321777345	1309.888671875	-802.1470336914065	135.7552032470703	1307.138671875	-808.365173339844	131.8950500488282	1230.723022460938	-827.4678344726565	418.0294799804689	1289.282104492188	-921.295593261719	431.9738769531251	1304.884033203125	-842.7739868164065	512.1473388671876	1309.469604492188	-925.7844238281252	-306.6762695312501	854.1096801757815	-1172.61376953125	-327.0640869140626	829.6912841796877	-900.358337402344	-446.4290466308595	1012.560668945313	-1034.341918945313	-467.7814331054689	996.7260742187502	-1067.381958007813	-472.8348693847657	984.5669555664065	-1012.268432617188	-294.7039794921876	713.3825073242189	-1253.332641601563	-222.9583129882813	669.0523681640626	-1250.3515625	-185.3850708007813	698.9354248046876	-1241.156372070313	-215.7230987548829	609.6046142578126	-1240.889282226563	-115.2918243408203	498.342010498047	-1200.928100585938	-107.0975875854492	496.5447692871095	-1072.241577148438	-159.0359039306641	297.8220520019532	-1092.035400390625	-209.1415252685547	257.6078186035157	-1156.661865234375	-183.6424102783203	250.3536224365235	-1119.21533203125	-225.0136108398438	192.5272064208985	-1073.700317382813	-329.4736328125001	103.1390380859375	-1105.373779296875	-395.9735412597657	81.7443313598633	-1046.413208007813	-181.7417144775391	57.03397750854494	-1067.413330078125	-191.3115386962891	41.04759216308594	-1114.671020507813	-299.8089294433594	124.6509017944336	-1022.261474609375	-483.6903686523439	538.4282836914064	-859.098815917969	-453.1416625976564	476.4080810546876	-848.1226806640627	-419.1396484375001	471.9510803222657	-848.4136352539065	-491.665740966797	408.0847473144532	-874.4713134765627	-512.3117065429689	378.5216674804688	-887.1271972656252	-475.4172363281251	346.6700744628907	-1009.7802734375	-626.1195068359376	360.8296813964844	-956.193298339844	-687.1770019531251	447.4072570800782	-946.284851074219	-695.9309082031251	408.118865966797	-972.8218994140627	-718.0004882812501	421.9885253906251	-1025.827514648438	-865.7565917968752	546.9691772460939	-1042.568725585938	-834.271179199219	522.0040893554689	-1125.57275390625	-839.1762695312502	619.3855590820314	-1090.434326171875	-964.5186157226565	444.385711669922	-1158.37890625	-980.4483642578127	444.615692138672	-1119.72412109375	-1011.017272949219	470.8181457519532	-1083.312622070313	-205.8209533691407	1489.519287109375	-1163.823974609375	
